{"title":"Falsk som Vatten 1985 DVDrip Swedish Klam","uid":6996813,"size":1681118724,"categoryP":"video","categoryS":"movies","magnet":"?xt=urn:btih:be2281a4bf3ba50c9e613263506587f6bafb3778&amp;dn=Falsk+som+Vatten+1985+DVDrip+Swedish+Klam&amp;tr=udp%3A%2F%2Ftracker.openbittorrent.com%3A80&amp;tr=udp%3A%2F%2Fopen.demonii.com%3A1337&amp;tr=udp%3A%2F%2Ftracker.coppersurfer.tk%3A6969&amp;tr=udp%3A%2F%2Fexodus.desync.com%3A6969","seeders":0,"leechers":1,"uploader":"Klambake","files":-1,"time":1327917679,"description":"With: Malin Ek, Sverre Anker Ousdal and Marie GÃƒÂ¶ranzon\n\nJohn, een lichtzinnige getrouwde man, wordt verliefd op Clara, een jonge dichteres. Dit culmineert in een romance en John en Clara nemen een appartement in een slechte buurt van de stad. Noch John's echtgenote, noch Clara's ex-vriend is geÃƒÂ¯nteresseerd in de affaire. Maar dan gebeuren er vreemde dingen in het appartement. Spullen liggen niet meer op hun vertrouwde plek, het gas begint zomaar te lekken enz. Door alle spanning die dit oplevert gaat Clara's gezondheid zienderogen achteruit, en het blijkt nog maar het begin van naderend onheil..\n\nJohn and Carl have a small publishing company. One day John meets the poet Clara who recently made her debut...\n\n------------------------ Dutch Friends ------------------------\n---------------------------------------------------------------\n- Bezoek ook eens mijn vrienden op: &lt;a href=&quot; http://www.Film-Test.nl&quot; rel=&quot;nofollow&quot; target=&quot;_NEW&quot;&gt; http://www.Film-Test.nl&lt;/a&gt; --\n----- voor mijn Nederlandse Sync. ondertitels ---- en meer ----\n------- http://www.Film-Test.nl ---- voor Films en meer -------\n---------------------------------------------------------------\n\nGeneral:\n\nComplete name                    : Falsk som Vatten\\Falsk som Vatten.avi\nFormat                           : AVI\nFormat/Info                      : Audio Video Interleave\nFile size                        : 1.57 GiB\nDuration                         : 1h 35mn\nOverall bit rate                 : 2 339 Kbps\n\nVideo:\n\nFormat                           : MPEG-4 Visual\nFormat profile                   : Simple@L3\nFormat settings, BVOP            : No\nFormat settings, QPel            : No\nFormat settings, GMC             : No warppoints\nFormat settings, Matrix          : Default (H.263)\nCodec ID                         : XVID\nCodec ID/Hint                    : XviD\nDuration                         : 1h 35mn\nBit rate                         : 1 881 Kbps\nWidth                            : 704 pixels\nHeight                           : 396 pixels\nDisplay aspect ratio             : 16:9\nFrame rate                       : 25.000 fps\nColor space                      : YUV\nChroma subsampling               : 4:2:0\nBit depth                        : 8 bits\nScan type                        : Progressive\nCompression mode                 : Lossy\nBits/(Pixel*Frame)               : 0.270\nStream size                      : 1.26 GiB (80%)\nWriting library                  : XviD 1.1.2 (UTC 2006-11-01)\n\nAudio:\n\nFormat                           : AC-3\nFormat/Info                      : Audio Coding 3\nMode extension                   : CM (complete main)\nCodec ID                         : 2000\nDuration                         : 1h 35mn\nBit rate mode                    : Constant\nBit rate                         : 448 Kbps\nChannel(s)                       : 6 channels\nChannel positions                : Front: L C R, Side: L R, LFE\nSampling rate                    : 48.0 KHz\nBit depth                        : 16 bits\nCompression mode                 : Lossy\nStream size                      : 307 MiB (19%)\nAlignment                        : Aligned on interleaves\nInterleave, duration             : 32 ms (0.80 video frame)\n\n","torrent":{"xt":"urn:btih:be2281a4bf3ba50c9e613263506587f6bafb3778","amp;dn":"Falsk+som+Vatten+1985+DVDrip+Swedish+Klam","amp;tr":["udp%3A%2F%2Ftracker.openbittorrent.com%3A80","udp%3A%2F%2Fopen.demonii.com%3A1337","udp%3A%2F%2Ftracker.coppersurfer.tk%3A6969","udp%3A%2F%2Fexodus.desync.com%3A6969"],"infoHash":"be2281a4bf3ba50c9e613263506587f6bafb3778","infoHashBuffer":{"type":"Buffer","data":[190,34,129,164,191,59,165,12,158,97,50,99,80,101,135,246,186,251,55,120]},"announce":[],"urlList":[]}}